<svg width="1622" height="1080" viewBox="0 0 1622 1080" fill="none" xmlns="http://www.w3.org/2000/svg">
<g style="mix-blend-mode:overlay">
<path d="M810.92 1389.93C1258.28 1389.93 1620.93 1027.28 1620.93 579.92C1620.93 132.564 1258.28 -230.09 810.92 -230.09C363.564 -230.09 0.910034 132.564 0.910034 579.92C0.910034 1027.28 363.564 1389.93 810.92 1389.93Z" stroke="white" stroke-width="1.49" stroke-miterlimit="10"/>
<path d="M810.92 1254.93C1183.72 1254.93 1485.93 952.718 1485.93 579.92C1485.93 207.122 1183.72 -95.0898 810.92 -95.0898C438.122 -95.0898 135.91 207.122 135.91 579.92C135.91 952.718 438.122 1254.93 810.92 1254.93Z" stroke="white" stroke-width="1.49" stroke-miterlimit="10"/>
<path d="M810.92 1119.93C1109.16 1119.93 1350.93 878.159 1350.93 579.92C1350.93 281.681 1109.16 39.9102 810.92 39.9102C512.681 39.9102 270.91 281.681 270.91 579.92C270.91 878.159 512.681 1119.93 810.92 1119.93Z" stroke="white" stroke-width="1.49" stroke-miterlimit="10"/>
<path d="M810.92 984.92C1034.6 984.92 1215.92 803.595 1215.92 579.92C1215.92 356.245 1034.6 174.92 810.92 174.92C587.245 174.92 405.92 356.245 405.92 579.92C405.92 803.595 587.245 984.92 810.92 984.92Z" stroke="white" stroke-width="1.49" stroke-miterlimit="10"/>
<path d="M810.92 849.92C960.037 849.92 1080.92 729.037 1080.92 579.92C1080.92 430.803 960.037 309.92 810.92 309.92C661.803 309.92 540.92 430.803 540.92 579.92C540.92 729.037 661.803 849.92 810.92 849.92Z" stroke="white" stroke-width="1.49" stroke-miterlimit="10"/>
<path d="M810.92 714.92C885.478 714.92 945.92 654.478 945.92 579.92C945.92 505.361 885.478 444.92 810.92 444.92C736.362 444.92 675.92 505.361 675.92 579.92C675.92 654.478 736.362 714.92 810.92 714.92Z" stroke="white" stroke-width="1.49" stroke-miterlimit="10"/>
<path d="M810.92 579.92L951.58 1377.62" stroke="white" stroke-width="1.49" stroke-miterlimit="10"/>
<path d="M810.92 579.92L1613.04 692.65" stroke="white" stroke-width="1.49" stroke-miterlimit="10"/>
<path d="M810.92 579.92L1166 -148.11" stroke="white" stroke-width="1.49" stroke-miterlimit="10"/>
<path d="M810.92 579.92L228.24 17.2402" stroke="white" stroke-width="1.49" stroke-miterlimit="10"/>
<path d="M810.92 579.92L95.72 960.2" stroke="white" stroke-width="1.49" stroke-miterlimit="10"/>
</g>
</svg>
