<svg width="32" height="32" viewBox="0 0 32 32" fill="none" xmlns="http://www.w3.org/2000/svg">
<circle cx="16" cy="16" r="16" fill="#4F4F4F"/>
<path d="M16 6C14.0222 6 12.0888 6.58649 10.4443 7.6853C8.79981 8.78412 7.51809 10.3459 6.76121 12.1732C6.00433 14.0004 5.8063 16.0111 6.19215 17.9509C6.578 19.8907 7.53041 21.6725 8.92894 23.0711C10.3275 24.4696 12.1093 25.422 14.0491 25.8078C15.9889 26.1937 17.9996 25.9957 19.8268 25.2388C21.6541 24.4819 23.2159 23.2002 24.3147 21.5557C25.4135 19.9112 26 17.9778 26 16C26 14.6868 25.7413 13.3864 25.2388 12.1732C24.7362 10.9599 23.9997 9.85752 23.0711 8.92893C22.1425 8.00035 21.0401 7.26375 19.8268 6.7612C18.6136 6.25866 17.3132 6 16 6ZM16 8C18.0547 7.99918 20.0298 8.79493 21.51 10.22C19.982 11.1162 18.3629 11.847 16.68 12.4C15.8425 10.9568 14.8823 9.58844 13.81 8.31C14.522 8.105 15.2591 8.00065 16 8ZM11.89 9.15C12.9377 10.3485 13.878 11.6368 14.7 13C12.7371 13.4874 10.7225 13.7359 8.7 13.74H8.34C8.90721 11.8196 10.1739 10.1818 11.89 9.15ZM10 21.31C8.69876 19.8487 7.98608 17.9566 8 16C8 15.9 8 15.8 8 15.71H8.68C11.0474 15.6888 13.4014 15.3525 15.68 14.71C16 15.32 16.3 15.95 16.59 16.6C15.0315 17.1494 13.58 17.9648 12.3 19.01L12 19.25C11.2871 19.8902 10.6189 20.5785 10 21.31ZM16 24C14.4061 24.0035 12.8482 23.5261 11.53 22.63C12.0168 22.0716 12.5378 21.5439 13.09 21.05L13.41 20.78C14.5932 19.7849 15.949 19.0155 17.41 18.51C18.0113 20.136 18.4795 21.8082 18.81 23.51C17.9098 23.8387 16.9583 24.0046 16 24ZM20.63 22.51C20.3028 20.9966 19.8752 19.5066 19.35 18.05H19.69C19.7294 18.0403 19.7706 18.0403 19.81 18.05H19.92H20.02H20.5C21.5524 18.053 22.5968 18.2321 23.59 18.58C23.0443 20.1704 22.0079 21.5464 20.63 22.51ZM20.5 16C20.29 16 20.08 16 19.88 16C19.7505 15.9837 19.6195 15.9837 19.49 16C19.2182 16.0167 18.9477 16.0501 18.68 16.1H18.58C18.29 15.43 17.99 14.78 17.66 14.1C19.4506 13.4851 21.1704 12.6805 22.79 11.7C23.5934 12.9894 24.0131 14.4808 24 16C24 16.17 24 16.34 24 16.51C22.8667 16.1602 21.686 15.9882 20.5 16Z" fill="white"/>
</svg>
