<svg width="96" height="96" viewBox="0 0 96 96" fill="none" xmlns="http://www.w3.org/2000/svg">
<path d="M48.0121 0H47.9881C21.5221 0 6.29816e-05 21.528 6.29816e-05 48C-0.0163716 58.1101 3.18396 67.9632 9.13806 76.134L3.15606 93.966L21.6061 88.068C29.4323 93.2602 38.6201 96.0201 48.0121 96C74.4781 96 96.0001 74.466 96.0001 48C96.0001 21.534 74.4781 0 48.0121 0Z" fill="#4CAF50"/>
<path d="M75.942 67.782C74.784 71.052 70.188 73.764 66.522 74.556C64.014 75.09 60.738 75.516 49.71 70.944C35.604 65.1 26.52 50.766 25.812 49.836C25.134 48.906 20.112 42.246 20.112 35.358C20.112 28.47 23.61 25.116 25.02 23.676C26.178 22.494 28.092 21.954 29.928 21.954C30.522 21.954 31.056 21.984 31.536 22.008C32.946 22.068 33.654 22.152 34.584 24.378C35.742 27.168 38.562 34.056 38.898 34.764C39.24 35.472 39.582 36.432 39.102 37.362C38.652 38.322 38.256 38.748 37.548 39.564C36.84 40.38 36.168 41.004 35.46 41.88C34.812 42.642 34.08 43.458 34.896 44.868C35.712 46.248 38.532 50.85 42.684 54.546C48.042 59.316 52.386 60.84 53.94 61.488C55.098 61.968 56.478 61.854 57.324 60.954C58.398 59.796 59.724 57.876 61.074 55.986C62.034 54.63 63.246 54.462 64.518 54.942C65.814 55.392 72.672 58.782 74.082 59.484C75.492 60.192 76.422 60.528 76.764 61.122C77.1 61.716 77.1 64.506 75.942 67.782Z" fill="#FAFAFA"/>
</svg>
