<svg width="14" height="14" viewBox="0 0 14 14" fill="none" xmlns="http://www.w3.org/2000/svg">
<path d="M11.375 0C12.0981 0 12.7164 0.256727 13.2298 0.770182C13.7433 1.28364 14 1.90191 14 2.625V11.375C14 12.0981 13.7433 12.7164 13.2298 13.2298C12.7164 13.7433 12.0981 14 11.375 14H9.66146V8.57682H11.4753L11.7487 6.46224H9.66146V5.11328C9.66146 4.773 9.73286 4.5178 9.87565 4.34766C10.0184 4.17752 10.2964 4.09245 10.7096 4.09245L11.8216 4.08333V2.19661C11.4388 2.14193 10.898 2.11458 10.1992 2.11458C9.37283 2.11458 8.71202 2.35764 8.2168 2.84375C7.72157 3.32986 7.47396 4.01649 7.47396 4.90365V6.46224H5.65104V8.57682H7.47396V14H2.625C1.90191 14 1.28364 13.7433 0.770182 13.2298C0.256727 12.7164 0 12.0981 0 11.375V2.625C0 1.90191 0.256727 1.28364 0.770182 0.770182C1.28364 0.256727 1.90191 0 2.625 0H11.375Z" fill="black"/>
</svg>
