<svg width="12" height="12" viewBox="0 0 12 12" fill="none" xmlns="http://www.w3.org/2000/svg">
<path d="M8.94833 2.01833C8.80989 2.01833 8.67455 2.05939 8.55943 2.1363C8.44432 2.21322 8.3546 2.32255 8.30162 2.45045C8.24864 2.57836 8.23477 2.71911 8.26178 2.8549C8.28879 2.99068 8.35546 3.11541 8.45336 3.21331C8.55126 3.3112 8.67598 3.37787 8.81177 3.40488C8.94756 3.43189 9.0883 3.41803 9.21621 3.36505C9.34412 3.31207 9.45344 3.22235 9.53036 3.10723C9.60728 2.99212 9.64833 2.85678 9.64833 2.71833C9.64833 2.53268 9.57458 2.35463 9.44331 2.22336C9.31203 2.09208 9.13398 2.01833 8.94833 2.01833ZM11.6317 3.43C11.6203 2.94601 11.5297 2.46715 11.3633 2.0125C11.215 1.62349 10.9842 1.27125 10.6867 0.98C10.3978 0.680998 10.0447 0.451603 9.65417 0.309167C9.20072 0.13776 8.72133 0.0450392 8.23667 0.035C7.61833 -3.25963e-08 7.42 0 5.83333 0C4.24667 0 4.04833 -3.25963e-08 3.43 0.035C2.94534 0.0450392 2.46595 0.13776 2.0125 0.309167C1.62264 0.453045 1.26988 0.682244 0.98 0.98C0.680998 1.26885 0.451603 1.62192 0.309167 2.0125C0.13776 2.46595 0.0450392 2.94534 0.035 3.43C-3.25963e-08 4.04833 0 4.24667 0 5.83333C0 7.42 -3.25963e-08 7.61833 0.035 8.23667C0.0450392 8.72133 0.13776 9.20072 0.309167 9.65417C0.451603 10.0447 0.680998 10.3978 0.98 10.6867C1.26988 10.9844 1.62264 11.2136 2.0125 11.3575C2.46595 11.5289 2.94534 11.6216 3.43 11.6317C4.04833 11.6667 4.24667 11.6667 5.83333 11.6667C7.42 11.6667 7.61833 11.6667 8.23667 11.6317C8.72133 11.6216 9.20072 11.5289 9.65417 11.3575C10.0447 11.2151 10.3978 10.9857 10.6867 10.6867C10.9855 10.3965 11.2165 10.0439 11.3633 9.65417C11.5297 9.19951 11.6203 8.72066 11.6317 8.23667C11.6317 7.61833 11.6667 7.42 11.6667 5.83333C11.6667 4.24667 11.6667 4.04833 11.6317 3.43ZM10.5817 8.16667C10.5774 8.53695 10.5104 8.90383 10.3833 9.25167C10.2902 9.50553 10.1406 9.73491 9.94583 9.9225C9.75663 10.1153 9.52771 10.2646 9.275 10.36C8.92716 10.487 8.56028 10.5541 8.19 10.5583C7.60667 10.5875 7.39083 10.5933 5.85667 10.5933C4.3225 10.5933 4.10667 10.5933 3.52333 10.5583C3.13885 10.5655 2.75601 10.5063 2.39167 10.3833C2.15004 10.283 1.93162 10.1341 1.75 9.94583C1.55638 9.75844 1.40866 9.52886 1.31833 9.275C1.17592 8.92217 1.09693 8.54697 1.085 8.16667C1.085 7.58333 1.05 7.3675 1.05 5.83333C1.05 4.29917 1.05 4.08333 1.085 3.5C1.08761 3.12145 1.15672 2.7463 1.28917 2.39167C1.39186 2.14545 1.54949 1.92597 1.75 1.75C1.92722 1.54943 2.14625 1.39014 2.39167 1.28333C2.74724 1.15503 3.122 1.08796 3.5 1.085C4.08333 1.085 4.29917 1.05 5.83333 1.05C7.3675 1.05 7.58333 1.05 8.16667 1.085C8.53695 1.08925 8.90383 1.15631 9.25167 1.28333C9.51675 1.38171 9.75467 1.54166 9.94583 1.75C10.137 1.92919 10.2864 2.14826 10.3833 2.39167C10.513 2.74688 10.5801 3.12187 10.5817 3.5C10.6108 4.08333 10.6167 4.29917 10.6167 5.83333C10.6167 7.3675 10.6108 7.58333 10.5817 8.16667ZM5.83333 2.84083C5.24172 2.84199 4.66373 3.01847 4.17238 3.34799C3.68104 3.67751 3.29839 4.14528 3.07279 4.69219C2.84719 5.2391 2.78876 5.84061 2.90488 6.42071C3.021 7.00081 3.30647 7.53348 3.72521 7.9514C4.14395 8.36933 4.67717 8.65376 5.2575 8.76875C5.83783 8.88375 6.43922 8.82415 6.98569 8.59748C7.53216 8.37081 7.99918 7.98726 8.32774 7.49527C8.6563 7.00328 8.83167 6.42494 8.83167 5.83333C8.83244 5.43964 8.75537 5.04969 8.60489 4.68589C8.45441 4.32209 8.23349 3.99164 7.95484 3.71353C7.67619 3.43542 7.3453 3.21515 6.98122 3.06538C6.61713 2.91561 6.22702 2.83929 5.83333 2.84083ZM5.83333 7.77583C5.44914 7.77583 5.07358 7.66191 4.75414 7.44846C4.4347 7.23502 4.18572 6.93164 4.0387 6.5767C3.89167 6.22175 3.85321 5.83118 3.92816 5.45437C4.00311 5.07756 4.18811 4.73144 4.45978 4.45978C4.73144 4.18811 5.07756 4.00311 5.45437 3.92816C5.83118 3.85321 6.22175 3.89167 6.5767 4.0387C6.93164 4.18572 7.23502 4.4347 7.44846 4.75414C7.66191 5.07358 7.77583 5.44914 7.77583 5.83333C7.77583 6.08843 7.72559 6.34102 7.62797 6.5767C7.53035 6.81237 7.38727 7.02651 7.20689 7.20689C7.02651 7.38727 6.81237 7.53035 6.5767 7.62797C6.34102 7.72559 6.08843 7.77583 5.83333 7.77583Z" fill="black"/>
</svg>
