<svg width="15" height="14" viewBox="0 0 15 14" fill="none" xmlns="http://www.w3.org/2000/svg">
<path d="M10.3744 8.58646C10.3744 9.19973 10.5489 9.4443 11.0052 9.4443C12.0222 9.4443 12.6698 8.14841 12.6698 5.99322C12.6698 2.6991 10.2693 1.12213 7.27232 1.12213C4.1892 1.12213 1.38496 3.18972 1.38496 7.0971C1.38496 10.8293 3.83803 12.8618 7.60524 12.8618C8.88433 12.8618 9.74291 12.7216 11.0563 12.2836L11.3381 13.4568C10.0415 13.8781 8.65582 14 7.58771 14C2.64654 14 0 11.2841 0 7.09637C0 2.87359 3.06706 0 7.28984 0C11.6878 0 14.0175 2.62829 14.0175 5.85231C14.0175 8.58573 13.1597 10.6708 10.4613 10.6708C9.23404 10.6708 8.42876 10.1802 8.32363 9.09314C8.00824 10.3021 7.16719 10.6708 6.02753 10.6708C4.50313 10.6708 3.22403 9.49614 3.22403 7.13141C3.22403 4.74844 4.34616 3.2766 6.36118 3.2766C7.43002 3.2766 8.09585 3.69712 8.39226 4.36295L8.90113 3.43429H10.373V8.58646H10.3744ZM8.21996 6.27357C8.21996 5.3106 7.50083 4.90686 6.90509 4.90686C6.25678 4.90686 5.53911 5.43179 5.53911 6.97445C5.53911 8.20098 6.08229 8.88433 6.90509 8.88433C7.48331 8.88433 8.21996 8.51637 8.21996 7.5001V6.27357Z" fill="black"/>
</svg>
