<svg width="14" height="14" viewBox="0 0 14 14" fill="none" xmlns="http://www.w3.org/2000/svg">
<path d="M10.2681 8.40699C10.1275 8.33708 9.21317 7.9176 9.07251 7.84769C8.93185 7.77778 8.79119 7.77778 8.65053 7.9176C8.50987 8.05743 8.22856 8.4769 8.0879 8.61673C8.01757 8.75655 7.87691 8.75655 7.73625 8.68664C7.24394 8.4769 6.75164 8.19725 6.32966 7.84769C5.97801 7.49813 5.62636 7.07865 5.34505 6.65918C5.27472 6.51935 5.34505 6.37953 5.41537 6.30961C5.4857 6.2397 5.55603 6.09988 5.69669 6.02996C5.76702 5.96005 5.83735 5.82022 5.83735 5.75031C5.90768 5.6804 5.90768 5.54057 5.83735 5.47066C5.76702 5.40075 5.41537 4.5618 5.27472 4.21223C5.20439 3.72285 5.06373 3.72285 4.92307 3.72285H4.57142C4.43076 3.72285 4.21977 3.86267 4.14944 3.93258C3.72747 4.35206 3.51648 4.84145 3.51648 5.40075C3.58681 6.02996 3.7978 6.65918 4.21977 7.21848C4.9934 8.33708 5.97801 9.24594 7.17361 9.80524C7.52526 9.94507 7.80658 10.0849 8.15823 10.1548C8.50987 10.2946 8.86152 10.2946 9.2835 10.2247C9.77581 10.1548 10.1978 9.80524 10.4791 9.38577C10.6198 9.10612 10.6198 8.82647 10.5494 8.54682L10.2681 8.40699ZM12.0264 2.04494C9.2835 -0.681648 4.85274 -0.681648 2.10989 2.04494C-0.140659 4.28215 -0.562636 7.70786 0.984614 10.4345L0 14L3.72747 13.0212C4.78241 13.5805 5.90768 13.8602 7.03295 13.8602C10.9011 13.8602 13.9956 10.784 13.9956 6.93883C14.0659 5.1211 13.2923 3.37328 12.0264 2.04494ZM10.1275 11.8327C9.21317 12.392 8.15823 12.7416 7.03295 12.7416C5.97801 12.7416 4.9934 12.4619 4.07911 11.9725L3.86812 11.8327L1.68791 12.392L2.25055 10.2946L2.10989 10.0849C0.421977 7.28839 1.26593 3.79276 4.00878 2.04494C6.75164 0.297129 10.2681 1.20599 11.956 3.86267C13.6439 6.58926 12.8703 10.1548 10.1275 11.8327Z" fill="black"/>
</svg>
