<svg width="14" height="10" viewBox="0 0 14 10" fill="none" xmlns="http://www.w3.org/2000/svg">
<path d="M13.9968 3.46707C14.0282 2.55678 13.8292 1.65331 13.4181 0.840541C13.1391 0.507041 12.752 0.281981 12.3242 0.204578C10.5546 0.044014 8.77777 -0.0217961 7.00119 0.00743013C5.23108 -0.0231226 3.4606 0.0405639 1.69727 0.198219C1.34864 0.261635 1.02602 0.425157 0.768761 0.668831C0.196395 1.19668 0.132799 2.09975 0.0692028 2.8629C-0.0230676 4.23503 -0.0230676 5.61181 0.0692028 6.98394C0.0876013 7.41347 0.151556 7.83983 0.259991 8.25586C0.336673 8.57706 0.491814 8.87424 0.711525 9.12077C0.970532 9.37735 1.30067 9.55018 1.65911 9.61682C3.03019 9.78606 4.41169 9.8562 5.79286 9.82669C8.01873 9.85849 9.97113 9.82669 12.2797 9.64862C12.6469 9.58607 12.9864 9.41302 13.2527 9.15257C13.4307 8.97445 13.5637 8.75643 13.6406 8.51661C13.8681 7.81871 13.9798 7.0883 13.9713 6.35433C13.9968 5.99819 13.9968 3.84864 13.9968 3.46707ZM5.56392 6.73591V2.7993L9.32881 4.77715C8.27312 5.36223 6.88036 6.02363 5.56392 6.73591Z" fill="black"/>
</svg>
